<svg width="222" height="37" viewBox="0 0 222 37" fill="none" xmlns="http://www.w3.org/2000/svg">
<g filter="url(#filter0_d_6_43)">
<path d="M47.6293 25L46.9333 21.16H43.6453L42.9973 25H39.5653L42.8293 8.368H47.8453L51.0613 25H47.6293ZM44.1493 18.112H46.4053L45.2533 11.68L44.1493 18.112ZM62.0355 12.184V13.744C62.0355 15.296 61.4675 16.248 60.3315 16.6C61.5635 16.888 62.1795 17.848 62.1795 19.48V21.184C62.1795 23.728 60.8195 25 58.0995 25H52.2675V8.368H57.9555C60.6755 8.368 62.0355 9.64 62.0355 12.184ZM57.3555 11.392H55.8675V15.016H57.3555C58.1075 15.016 58.4835 14.672 58.4835 13.984V12.424C58.4835 11.736 58.1075 11.392 57.3555 11.392ZM58.6275 20.944V19.24C58.6275 18.552 58.2515 18.208 57.4995 18.208H55.8675V21.976H57.4995C58.2515 21.976 58.6275 21.632 58.6275 20.944ZM70.3194 12.616C70.3194 11.816 69.8394 11.416 68.8794 11.416C67.9354 11.416 67.4634 11.816 67.4634 12.616V20.752C67.4634 21.552 67.9354 21.952 68.8794 21.952C69.8394 21.952 70.3194 21.552 70.3194 20.752V12.616ZM63.8634 12.424C63.8634 11.112 64.2874 10.072 65.1354 9.304C65.9834 8.52 67.2314 8.128 68.8794 8.128C70.5274 8.128 71.7754 8.52 72.6234 9.304C73.4874 10.072 73.9194 11.112 73.9194 12.424V20.944C73.9194 22.256 73.4874 23.304 72.6234 24.088C71.7754 24.856 70.5274 25.24 68.8794 25.24C67.2314 25.24 65.9834 24.856 65.1354 24.088C64.2874 23.304 63.8634 22.256 63.8634 20.944V12.424ZM82.0856 8.368H85.6856V20.944C85.6856 22.256 85.2616 23.304 84.4136 24.088C83.5816 24.856 82.3416 25.24 80.6936 25.24C79.0616 25.24 77.8216 24.856 76.9736 24.088C76.1416 23.32 75.7256 22.272 75.7256 20.944V8.368H79.3256V20.752C79.3256 21.552 79.7816 21.952 80.6936 21.952C81.6216 21.952 82.0856 21.552 82.0856 20.752V8.368ZM96.4164 8.368V11.488H93.4164V25H89.7684V11.488H86.7684V8.368H96.4164ZM110.76 8.368V11.488H107.76V25H104.112V11.488H101.112V8.368H110.76ZM118.923 8.368H122.571V25H118.923V18.424H115.611V25H111.963V8.368H115.611V15.208H118.923V8.368ZM124.736 8.368H133.16V11.488H128.336V15.016H132.512V18.136H128.336V21.88H133.16V25H124.736V8.368ZM145.291 12.496C145.291 11.824 144.947 11.488 144.259 11.488H142.915V17.08H144.259C144.947 17.08 145.291 16.744 145.291 16.072V12.496ZM139.291 8.368H144.715C146.011 8.368 147.027 8.68 147.763 9.304C148.515 9.928 148.891 10.848 148.891 12.064V16.504C148.891 17.72 148.515 18.64 147.763 19.264C147.027 19.888 146.011 20.2 144.715 20.2H142.915V25H139.291V8.368ZM157.668 25L156.972 21.16H153.684L153.036 25H149.604L152.868 8.368H157.884L161.1 25H157.668ZM154.188 18.112H156.444L155.292 11.68L154.188 18.112ZM162.067 12.376C162.067 11.112 162.547 10.112 163.507 9.376C164.483 8.624 165.867 8.248 167.659 8.248C169.003 8.248 170.131 8.4 171.043 8.704V12.112C170.083 11.744 169.123 11.56 168.163 11.56C167.203 11.56 166.555 11.672 166.219 11.896C165.883 12.12 165.715 12.424 165.715 12.808V20.704C165.715 21.088 165.835 21.384 166.075 21.592C166.315 21.784 166.667 21.88 167.131 21.88C167.611 21.88 167.979 21.816 168.235 21.688V16.072H171.739V24.112C170.491 24.784 169.011 25.12 167.299 25.12C165.587 25.12 164.283 24.768 163.387 24.064C162.507 23.36 162.067 22.368 162.067 21.088V12.376ZM173.533 8.368H181.957V11.488H177.133V15.016H181.309V18.136H177.133V21.88H181.957V25H173.533V8.368Z" fill="#1DB9C3"/>
<path d="M47.6293 25L45.6614 25.3567L45.9592 27H47.6293V25ZM46.9333 21.16L48.9012 20.8033L48.6034 19.16H46.9333V21.16ZM43.6453 21.16V19.16H41.9545L41.6732 20.8272L43.6453 21.16ZM42.9973 25V27H44.6881L44.9694 25.3328L42.9973 25ZM39.5653 25L37.6027 24.6149L37.1347 27H39.5653V25ZM42.8293 8.368V6.368H41.1837L40.8667 7.98285L42.8293 8.368ZM47.8453 8.368L49.8089 7.98831L49.4956 6.368H47.8453V8.368ZM51.0613 25V27H53.4851L53.0249 24.6203L51.0613 25ZM44.1493 18.112L42.1781 17.7737L41.7768 20.112H44.1493V18.112ZM46.4053 18.112V20.112H48.7953L48.374 17.7594L46.4053 18.112ZM45.2533 11.68L47.222 11.3274L43.2821 11.3417L45.2533 11.68ZM49.5972 24.6433L48.9012 20.8033L44.9654 21.5167L45.6614 25.3567L49.5972 24.6433ZM46.9333 19.16H43.6453V23.16H46.9333V19.16ZM41.6732 20.8272L41.0252 24.6672L44.9694 25.3328L45.6174 21.4928L41.6732 20.8272ZM42.9973 23H39.5653V27H42.9973V23ZM41.5279 25.3851L44.7919 8.75315L40.8667 7.98285L37.6027 24.6149L41.5279 25.3851ZM42.8293 10.368H47.8453V6.368H42.8293V10.368ZM45.8817 8.74769L49.0977 25.3797L53.0249 24.6203L49.8089 7.98831L45.8817 8.74769ZM51.0613 23H47.6293V27H51.0613V23ZM44.1493 20.112H46.4053V16.112H44.1493V20.112ZM48.374 17.7594L47.222 11.3274L43.2846 12.0326L44.4366 18.4646L48.374 17.7594ZM43.2821 11.3417L42.1781 17.7737L46.1205 18.4503L47.2245 12.0183L43.2821 11.3417ZM60.3315 16.6L59.7395 14.6896L52.7017 16.8703L59.8762 18.5475L60.3315 16.6ZM52.2675 25H50.2675V27H52.2675V25ZM52.2675 8.368V6.368H50.2675V8.368H52.2675ZM55.8675 11.392V9.392H53.8675V11.392H55.8675ZM55.8675 15.016H53.8675V17.016H55.8675V15.016ZM55.8675 18.208V16.208H53.8675V18.208H55.8675ZM55.8675 21.976H53.8675V23.976H55.8675V21.976ZM60.0355 12.184V13.744H64.0355V12.184H60.0355ZM60.0355 13.744C60.0355 14.2967 59.9315 14.531 59.892 14.5973C59.8756 14.6246 59.8662 14.6316 59.8615 14.6352C59.855 14.6402 59.8227 14.6638 59.7395 14.6896L60.9235 18.5104C61.9257 18.1998 62.7707 17.5792 63.327 16.6467C63.8555 15.761 64.0355 14.7433 64.0355 13.744H60.0355ZM59.8762 18.5475C59.9787 18.5715 60.0168 18.5968 60.0207 18.5994C60.0212 18.5998 60.0236 18.5995 60.0342 18.6161C60.0644 18.6632 60.1795 18.8899 60.1795 19.48H64.1795C64.1795 18.4381 63.9866 17.3688 63.4008 16.4559C62.78 15.4885 61.849 14.9008 60.7868 14.6525L59.8762 18.5475ZM60.1795 19.48V21.184H64.1795V19.48H60.1795ZM60.1795 21.184C60.1795 22.1122 59.9377 22.4503 59.7933 22.5853C59.6237 22.7439 59.1833 23 58.0995 23V27C59.7357 27 61.3353 26.6201 62.5257 25.5067C63.7413 24.3697 64.1795 22.7998 64.1795 21.184H60.1795ZM58.0995 23H52.2675V27H58.0995V23ZM54.2675 25V8.368H50.2675V25H54.2675ZM52.2675 10.368H57.9555V6.368H52.2675V10.368ZM57.9555 10.368C59.0393 10.368 59.4797 10.6241 59.6493 10.7827C59.7937 10.9177 60.0355 11.2558 60.0355 12.184H64.0355C64.0355 10.5682 63.5973 8.99825 62.3817 7.86132C61.1913 6.74794 59.5917 6.368 57.9555 6.368V10.368ZM57.3555 9.392H55.8675V13.392H57.3555V9.392ZM53.8675 11.392V15.016H57.8675V11.392H53.8675ZM55.8675 17.016H57.3555V13.016H55.8675V17.016ZM57.3555 17.016C57.9979 17.016 58.8528 16.8728 59.5515 16.2336C60.2839 15.5635 60.4835 14.6843 60.4835 13.984H56.4835C56.4835 13.9717 56.4951 13.6085 56.8515 13.2824C57.1742 12.9872 57.4651 13.016 57.3555 13.016V17.016ZM60.4835 13.984V12.424H56.4835V13.984H60.4835ZM60.4835 12.424C60.4835 11.7237 60.2839 10.8445 59.5515 10.1744C58.8528 9.53515 57.9979 9.392 57.3555 9.392V13.392C57.4651 13.392 57.1742 13.4208 56.8515 13.1256C56.4951 12.7995 56.4835 12.4363 56.4835 12.424H60.4835ZM60.6275 20.944V19.24H56.6275V20.944H60.6275ZM60.6275 19.24C60.6275 18.5397 60.4279 17.6605 59.6955 16.9904C58.9968 16.3512 58.1419 16.208 57.4995 16.208V20.208C57.6091 20.208 57.3182 20.2368 56.9955 19.9416C56.6391 19.6155 56.6275 19.2523 56.6275 19.24H60.6275ZM57.4995 16.208H55.8675V20.208H57.4995V16.208ZM53.8675 18.208V21.976H57.8675V18.208H53.8675ZM55.8675 23.976H57.4995V19.976H55.8675V23.976ZM57.4995 23.976C58.1419 23.976 58.9968 23.8328 59.6955 23.1936C60.4279 22.5235 60.6275 21.6443 60.6275 20.944H56.6275C56.6275 20.9317 56.6391 20.5685 56.9955 20.2424C57.3182 19.9472 57.6091 19.976 57.4995 19.976V23.976ZM65.1354 9.304L66.478 10.7864L66.4856 10.7795L66.4931 10.7725L65.1354 9.304ZM72.6234 9.304L71.2657 10.7725L71.2801 10.7858L71.2947 10.7988L72.6234 9.304ZM72.6234 24.088L73.966 25.5704L73.9674 25.5691L72.6234 24.088ZM65.1354 24.088L63.7777 25.5565L63.7853 25.5635L63.7929 25.5704L65.1354 24.088ZM72.3194 12.616C72.3194 11.8021 72.0579 10.8613 71.2398 10.1796C70.4916 9.55605 69.5879 9.416 68.8794 9.416V13.416C69.131 13.416 68.9473 13.4759 68.6791 13.2524C68.535 13.1324 68.4314 12.9811 68.3725 12.8338C68.3184 12.6987 68.3194 12.6119 68.3194 12.616H72.3194ZM68.8794 9.416C68.1726 9.416 67.2695 9.55878 66.5244 10.1902C65.7159 10.8754 65.4634 11.813 65.4634 12.616H69.4634C69.4634 12.6083 69.465 12.6912 69.4131 12.8231C69.3565 12.9671 69.2553 13.1191 69.1105 13.2418C68.8374 13.4732 68.6423 13.416 68.8794 13.416V9.416ZM65.4634 12.616V20.752H69.4634V12.616H65.4634ZM65.4634 20.752C65.4634 21.555 65.7159 22.4926 66.5244 23.1778C67.2695 23.8092 68.1726 23.952 68.8794 23.952V19.952C68.6423 19.952 68.8374 19.8948 69.1105 20.1262C69.2553 20.2489 69.3565 20.4009 69.4131 20.5449C69.465 20.6768 69.4634 20.7597 69.4634 20.752H65.4634ZM68.8794 23.952C69.5879 23.952 70.4916 23.8119 71.2398 23.1884C72.0579 22.5067 72.3194 21.5659 72.3194 20.752H68.3194C68.3194 20.7524 68.3194 20.7516 68.3194 20.752C68.3194 20.7524 68.3194 20.7516 68.3194 20.7519C68.3194 20.7519 68.3194 20.7519 68.3194 20.7518C68.3194 20.7516 68.3194 20.7514 68.3194 20.7511C68.3195 20.7505 68.3195 20.7496 68.3195 20.7485C68.3196 20.7461 68.3198 20.7425 68.3202 20.7378C68.3209 20.7284 68.3225 20.7141 68.3257 20.6953C68.3321 20.6577 68.3454 20.6019 68.3725 20.5342C68.4314 20.3869 68.535 20.2356 68.6791 20.1156C68.9473 19.8921 69.131 19.952 68.8794 19.952V23.952ZM72.3194 20.752V12.616H68.3194V20.752H72.3194ZM65.8634 12.424C65.8634 11.5854 66.1119 11.118 66.478 10.7864L63.7929 7.82159C62.463 9.02605 61.8634 10.6386 61.8634 12.424H65.8634ZM66.4931 10.7725C66.8398 10.4521 67.5207 10.128 68.8794 10.128V6.128C66.9421 6.128 65.1271 6.58795 63.7777 7.83545L66.4931 10.7725ZM68.8794 10.128C70.2381 10.128 70.9191 10.4521 71.2657 10.7725L73.9811 7.83545C72.6318 6.58795 70.8167 6.128 68.8794 6.128V10.128ZM71.2947 10.7988C71.6717 11.1339 71.9194 11.5977 71.9194 12.424H75.9194C75.9194 10.6263 75.3032 9.01008 73.9522 7.80918L71.2947 10.7988ZM71.9194 12.424V20.944H75.9194V12.424H71.9194ZM71.9194 20.944C71.9194 21.7698 71.6713 22.2514 71.2795 22.6069L73.9674 25.5691C75.3036 24.3566 75.9194 22.7422 75.9194 20.944H71.9194ZM71.2809 22.6056C70.9345 22.9193 70.2475 23.24 68.8794 23.24V27.24C70.8074 27.24 72.6164 26.7927 73.966 25.5704L71.2809 22.6056ZM68.8794 23.24C67.5114 23.24 66.8244 22.9193 66.478 22.6056L63.7929 25.5704C65.1425 26.7927 66.9515 27.24 68.8794 27.24V23.24ZM66.4931 22.6195C66.1122 22.2673 65.8634 21.782 65.8634 20.944H61.8634C61.8634 22.73 62.4626 24.3407 63.7777 25.5565L66.4931 22.6195ZM65.8634 20.944V12.424H61.8634V20.944H65.8634ZM82.0856 8.368V6.368H80.0856V8.368H82.0856ZM85.6856 8.368H87.6856V6.368H85.6856V8.368ZM84.4136 24.088L85.7702 25.5576L85.7713 25.5565L84.4136 24.088ZM76.9736 24.088L75.6171 25.5576L75.624 25.564L75.6311 25.5704L76.9736 24.088ZM75.7256 8.368V6.368H73.7256V8.368H75.7256ZM79.3256 8.368H81.3256V6.368H79.3256V8.368ZM82.0856 10.368H85.6856V6.368H82.0856V10.368ZM83.6856 8.368V20.944H87.6856V8.368H83.6856ZM83.6856 20.944C83.6856 21.782 83.4368 22.2673 83.0559 22.6195L85.7713 25.5565C87.0864 24.3407 87.6856 22.73 87.6856 20.944H83.6856ZM83.0571 22.6184C82.7326 22.9179 82.0651 23.24 80.6936 23.24V27.24C82.6181 27.24 84.4307 26.7941 85.7702 25.5576L83.0571 22.6184ZM80.6936 23.24C79.3477 23.24 78.6657 22.9222 78.3162 22.6056L75.6311 25.5704C76.9775 26.7898 78.7756 27.24 80.6936 27.24V23.24ZM78.3302 22.6184C77.9798 22.295 77.7256 21.8192 77.7256 20.944H73.7256C73.7256 22.7248 74.3034 24.345 75.6171 25.5576L78.3302 22.6184ZM77.7256 20.944V8.368H73.7256V20.944H77.7256ZM75.7256 10.368H79.3256V6.368H75.7256V10.368ZM77.3256 8.368V20.752H81.3256V8.368H77.3256ZM77.3256 20.752C77.3256 21.5333 77.5604 22.464 78.3487 23.1555C79.0871 23.8032 79.989 23.952 80.6936 23.952V19.952C80.4862 19.952 80.7042 19.9008 80.9865 20.1485C81.1324 20.2765 81.2286 20.4295 81.2807 20.5666C81.3283 20.6917 81.3256 20.7668 81.3256 20.752H77.3256ZM80.6936 23.952C81.3992 23.952 82.3017 23.8063 83.0435 23.1668C83.8421 22.4784 84.0856 21.5441 84.0856 20.752H80.0856C80.0856 20.7633 80.0835 20.6843 80.1332 20.5557C80.1876 20.4151 80.2863 20.2625 80.4317 20.1372C80.7095 19.8977 80.9161 19.952 80.6936 19.952V23.952ZM84.0856 20.752V8.368H80.0856V20.752H84.0856ZM96.4164 8.368H98.4164V6.368H96.4164V8.368ZM96.4164 11.488V13.488H98.4164V11.488H96.4164ZM93.4164 11.488V9.488H91.4164V11.488H93.4164ZM93.4164 25V27H95.4164V25H93.4164ZM89.7684 25H87.7684V27H89.7684V25ZM89.7684 11.488H91.7684V9.488H89.7684V11.488ZM86.7684 11.488H84.7684V13.488H86.7684V11.488ZM86.7684 8.368V6.368H84.7684V8.368H86.7684ZM94.4164 8.368V11.488H98.4164V8.368H94.4164ZM96.4164 9.488H93.4164V13.488H96.4164V9.488ZM91.4164 11.488V25H95.4164V11.488H91.4164ZM93.4164 23H89.7684V27H93.4164V23ZM91.7684 25V11.488H87.7684V25H91.7684ZM89.7684 9.488H86.7684V13.488H89.7684V9.488ZM88.7684 11.488V8.368H84.7684V11.488H88.7684ZM86.7684 10.368H96.4164V6.368H86.7684V10.368ZM110.76 8.368H112.76V6.368H110.76V8.368ZM110.76 11.488V13.488H112.76V11.488H110.76ZM107.76 11.488V9.488H105.76V11.488H107.76ZM107.76 25V27H109.76V25H107.76ZM104.112 25H102.112V27H104.112V25ZM104.112 11.488H106.112V9.488H104.112V11.488ZM101.112 11.488H99.1122V13.488H101.112V11.488ZM101.112 8.368V6.368H99.1122V8.368H101.112ZM108.76 8.368V11.488H112.76V8.368H108.76ZM110.76 9.488H107.76V13.488H110.76V9.488ZM105.76 11.488V25H109.76V11.488H105.76ZM107.76 23H104.112V27H107.76V23ZM106.112 25V11.488H102.112V25H106.112ZM104.112 9.488H101.112V13.488H104.112V9.488ZM103.112 11.488V8.368H99.1122V11.488H103.112ZM101.112 10.368H110.76V6.368H101.112V10.368ZM118.923 8.368V6.368H116.923V8.368H118.923ZM122.571 8.368H124.571V6.368H122.571V8.368ZM122.571 25V27H124.571V25H122.571ZM118.923 25H116.923V27H118.923V25ZM118.923 18.424H120.923V16.424H118.923V18.424ZM115.611 18.424V16.424H113.611V18.424H115.611ZM115.611 25V27H117.611V25H115.611ZM111.963 25H109.963V27H111.963V25ZM111.963 8.368V6.368H109.963V8.368H111.963ZM115.611 8.368H117.611V6.368H115.611V8.368ZM115.611 15.208H113.611V17.208H115.611V15.208ZM118.923 15.208V17.208H120.923V15.208H118.923ZM118.923 10.368H122.571V6.368H118.923V10.368ZM120.571 8.368V25H124.571V8.368H120.571ZM122.571 23H118.923V27H122.571V23ZM120.923 25V18.424H116.923V25H120.923ZM118.923 16.424H115.611V20.424H118.923V16.424ZM113.611 18.424V25H117.611V18.424H113.611ZM115.611 23H111.963V27H115.611V23ZM113.963 25V8.368H109.963V25H113.963ZM111.963 10.368H115.611V6.368H111.963V10.368ZM113.611 8.368V15.208H117.611V8.368H113.611ZM115.611 17.208H118.923V13.208H115.611V17.208ZM120.923 15.208V8.368H116.923V15.208H120.923ZM124.736 8.368V6.368H122.736V8.368H124.736ZM133.16 8.368H135.16V6.368H133.16V8.368ZM133.16 11.488V13.488H135.16V11.488H133.16ZM128.336 11.488V9.488H126.336V11.488H128.336ZM128.336 15.016H126.336V17.016H128.336V15.016ZM132.512 15.016H134.512V13.016H132.512V15.016ZM132.512 18.136V20.136H134.512V18.136H132.512ZM128.336 18.136V16.136H126.336V18.136H128.336ZM128.336 21.88H126.336V23.88H128.336V21.88ZM133.16 21.88H135.16V19.88H133.16V21.88ZM133.16 25V27H135.16V25H133.16ZM124.736 25H122.736V27H124.736V25ZM124.736 10.368H133.16V6.368H124.736V10.368ZM131.16 8.368V11.488H135.16V8.368H131.16ZM133.16 9.488H128.336V13.488H133.16V9.488ZM126.336 11.488V15.016H130.336V11.488H126.336ZM128.336 17.016H132.512V13.016H128.336V17.016ZM130.512 15.016V18.136H134.512V15.016H130.512ZM132.512 16.136H128.336V20.136H132.512V16.136ZM126.336 18.136V21.88H130.336V18.136H126.336ZM128.336 23.88H133.16V19.88H128.336V23.88ZM131.16 21.88V25H135.16V21.88H131.16ZM133.16 23H124.736V27H133.16V23ZM126.736 25V8.368H122.736V25H126.736ZM142.915 11.488V9.488H140.915V11.488H142.915ZM142.915 17.08H140.915V19.08H142.915V17.08ZM139.291 8.368V6.368H137.291V8.368H139.291ZM147.763 9.304L146.47 10.8295L146.478 10.8364L146.486 10.8431L147.763 9.304ZM147.763 19.264L146.486 17.7249L146.478 17.7316L146.47 17.7385L147.763 19.264ZM142.915 20.2V18.2H140.915V20.2H142.915ZM142.915 25V27H144.915V25H142.915ZM139.291 25H137.291V27H139.291V25ZM147.291 12.496C147.291 11.8396 147.12 10.9827 146.43 10.3092C145.75 9.64427 144.9 9.488 144.259 9.488V13.488C144.306 13.488 143.972 13.4997 143.635 13.1708C143.474 13.0129 143.381 12.8394 143.334 12.701C143.311 12.6356 143.301 12.5832 143.296 12.5492C143.291 12.5154 143.291 12.4966 143.291 12.496H147.291ZM144.259 9.488H142.915V13.488H144.259V9.488ZM140.915 11.488V17.08H144.915V11.488H140.915ZM142.915 19.08H144.259V15.08H142.915V19.08ZM144.259 19.08C144.9 19.08 145.75 18.9237 146.43 18.2588C147.12 17.5853 147.291 16.7284 147.291 16.072H143.291C143.291 16.0714 143.291 16.0526 143.296 16.0188C143.301 15.9848 143.311 15.9324 143.334 15.867C143.381 15.7286 143.474 15.5551 143.635 15.3972C143.972 15.0683 144.306 15.08 144.259 15.08V19.08ZM147.291 16.072V12.496H143.291V16.072H147.291ZM139.291 10.368H144.715V6.368H139.291V10.368ZM144.715 10.368C145.701 10.368 146.203 10.6032 146.47 10.8295L149.056 7.77848C147.851 6.75682 146.321 6.368 144.715 6.368V10.368ZM146.486 10.8431C146.67 10.9963 146.891 11.2844 146.891 12.064H150.891C150.891 10.4116 150.359 8.8597 149.04 7.76488L146.486 10.8431ZM146.891 12.064V16.504H150.891V12.064H146.891ZM146.891 16.504C146.891 17.2836 146.67 17.5717 146.486 17.7249L149.04 20.8031C150.359 19.7083 150.891 18.1564 150.891 16.504H146.891ZM146.47 17.7385C146.203 17.9648 145.701 18.2 144.715 18.2V22.2C146.321 22.2 147.851 21.8112 149.056 20.7895L146.47 17.7385ZM144.715 18.2H142.915V22.2H144.715V18.2ZM140.915 20.2V25H144.915V20.2H140.915ZM142.915 23H139.291V27H142.915V23ZM141.291 25V8.368H137.291V25H141.291ZM157.668 25L155.7 25.3567L155.998 27H157.668V25ZM156.972 21.16L158.94 20.8033L158.642 19.16H156.972V21.16ZM153.684 21.16V19.16H151.994L151.712 20.8272L153.684 21.16ZM153.036 25V27H154.727L155.008 25.3328L153.036 25ZM149.604 25L147.642 24.6149L147.174 27H149.604V25ZM152.868 8.368V6.368H151.223L150.906 7.98285L152.868 8.368ZM157.884 8.368L159.848 7.98831L159.535 6.368H157.884V8.368ZM161.1 25V27H163.524L163.064 24.6203L161.1 25ZM154.188 18.112L152.217 17.7737L151.816 20.112H154.188V18.112ZM156.444 18.112V20.112H158.834L158.413 17.7594L156.444 18.112ZM155.292 11.68L157.261 11.3274L153.321 11.3417L155.292 11.68ZM159.636 24.6433L158.94 20.8033L155.004 21.5167L155.7 25.3567L159.636 24.6433ZM156.972 19.16H153.684V23.16H156.972V19.16ZM151.712 20.8272L151.064 24.6672L155.008 25.3328L155.656 21.4928L151.712 20.8272ZM153.036 23H149.604V27H153.036V23ZM151.567 25.3851L154.831 8.75315L150.906 7.98285L147.642 24.6149L151.567 25.3851ZM152.868 10.368H157.884V6.368H152.868V10.368ZM155.921 8.74769L159.137 25.3797L163.064 24.6203L159.848 7.98831L155.921 8.74769ZM161.1 23H157.668V27H161.1V23ZM154.188 20.112H156.444V16.112H154.188V20.112ZM158.413 17.7594L157.261 11.3274L153.324 12.0326L154.476 18.4646L158.413 17.7594ZM153.321 11.3417L152.217 17.7737L156.16 18.4503L157.264 12.0183L153.321 11.3417ZM163.507 9.376L164.723 10.9632L164.727 10.9603L163.507 9.376ZM171.043 8.704H173.043V7.26248L171.675 6.80663L171.043 8.704ZM171.043 12.112L170.327 13.9795L173.043 15.0206V12.112H171.043ZM166.219 11.896L165.109 10.2319L165.109 10.2319L166.219 11.896ZM166.075 21.592L164.765 23.1034L164.794 23.1292L164.825 23.1537L166.075 21.592ZM168.235 21.688L169.129 23.4769L170.235 22.9241V21.688H168.235ZM168.235 16.072V14.072H166.235V16.072H168.235ZM171.739 16.072H173.739V14.072H171.739V16.072ZM171.739 24.112L172.687 25.8729L173.739 25.3066V24.112H171.739ZM163.387 24.064L162.137 25.6257L162.144 25.6312L162.151 25.6366L163.387 24.064ZM164.067 12.376C164.067 11.7015 164.282 11.3013 164.723 10.9632L162.29 7.78879C160.811 8.92267 160.067 10.5225 160.067 12.376H164.067ZM164.727 10.9603C165.226 10.576 166.115 10.248 167.659 10.248V6.248C165.619 6.248 163.739 6.67198 162.286 7.79172L164.727 10.9603ZM167.659 10.248C168.866 10.248 169.765 10.3864 170.41 10.6014L171.675 6.80663C170.496 6.41356 169.139 6.248 167.659 6.248V10.248ZM169.043 8.704V12.112H173.043V8.704H169.043ZM171.758 10.2445C170.586 9.79517 169.384 9.56 168.163 9.56V13.56C168.861 13.56 169.579 13.6928 170.327 13.9795L171.758 10.2445ZM168.163 9.56C167.615 9.56 167.091 9.59115 166.616 9.67322C166.169 9.75048 165.61 9.89795 165.109 10.2319L167.328 13.5601C167.279 13.5927 167.24 13.6132 167.215 13.6249C167.19 13.6366 167.176 13.6415 167.175 13.6417C167.175 13.6419 167.184 13.6387 167.205 13.6335C167.226 13.6283 167.257 13.6218 167.297 13.6148C167.47 13.5848 167.75 13.56 168.163 13.56V9.56ZM165.109 10.2319C164.251 10.804 163.715 11.7151 163.715 12.808H167.715C167.715 12.9179 167.688 13.0848 167.591 13.2594C167.497 13.4299 167.383 13.5235 167.328 13.5601L165.109 10.2319ZM163.715 12.808V20.704H167.715V12.808H163.715ZM163.715 20.704C163.715 21.5355 163.995 22.4365 164.765 23.1034L167.384 20.0806C167.505 20.1847 167.6 20.3196 167.658 20.4626C167.712 20.5963 167.715 20.6893 167.715 20.704H163.715ZM164.825 23.1537C165.561 23.7422 166.434 23.88 167.131 23.88V19.88C167.031 19.88 167.01 19.869 167.045 19.8785C167.084 19.8891 167.194 19.9267 167.324 20.0303L164.825 23.1537ZM167.131 23.88C167.737 23.88 168.468 23.8075 169.129 23.4769L167.34 19.8991C167.43 19.8542 167.471 19.8534 167.424 19.8616C167.38 19.8693 167.286 19.88 167.131 19.88V23.88ZM170.235 21.688V16.072H166.235V21.688H170.235ZM168.235 18.072H171.739V14.072H168.235V18.072ZM169.739 16.072V24.112H173.739V16.072H169.739ZM170.79 22.3511C169.889 22.8367 168.748 23.12 167.299 23.12V27.12C169.273 27.12 171.093 26.7313 172.687 25.8729L170.79 22.3511ZM167.299 23.12C165.82 23.12 165.028 22.8098 164.622 22.4914L162.151 25.6366C163.538 26.7262 165.354 27.12 167.299 27.12V23.12ZM164.636 22.5023C164.299 22.2325 164.067 21.8537 164.067 21.088H160.067C160.067 22.8823 160.714 24.4875 162.137 25.6257L164.636 22.5023ZM164.067 21.088V12.376H160.067V21.088H164.067ZM173.533 8.368V6.368H171.533V8.368H173.533ZM181.957 8.368H183.957V6.368H181.957V8.368ZM181.957 11.488V13.488H183.957V11.488H181.957ZM177.133 11.488V9.488H175.133V11.488H177.133ZM177.133 15.016H175.133V17.016H177.133V15.016ZM181.309 15.016H183.309V13.016H181.309V15.016ZM181.309 18.136V20.136H183.309V18.136H181.309ZM177.133 18.136V16.136H175.133V18.136H177.133ZM177.133 21.88H175.133V23.88H177.133V21.88ZM181.957 21.88H183.957V19.88H181.957V21.88ZM181.957 25V27H183.957V25H181.957ZM173.533 25H171.533V27H173.533V25ZM173.533 10.368H181.957V6.368H173.533V10.368ZM179.957 8.368V11.488H183.957V8.368H179.957ZM181.957 9.488H177.133V13.488H181.957V9.488ZM175.133 11.488V15.016H179.133V11.488H175.133ZM177.133 17.016H181.309V13.016H177.133V17.016ZM179.309 15.016V18.136H183.309V15.016H179.309ZM181.309 16.136H177.133V20.136H181.309V16.136ZM175.133 18.136V21.88H179.133V18.136H175.133ZM177.133 23.88H181.957V19.88H177.133V23.88ZM179.957 21.88V25H183.957V21.88H179.957ZM181.957 23H173.533V27H181.957V23ZM175.533 25V8.368H171.533V25H175.533Z" fill="#7027A0"/>
</g>
<defs>
<filter id="filter0_d_6_43" x="34.5653" y="6.12801" width="152.392" height="27.112" filterUnits="userSpaceOnUse" color-interpolation-filters="sRGB">
<feFlood flood-opacity="0" result="BackgroundImageFix"/>
<feColorMatrix in="SourceAlpha" type="matrix" values="0 0 0 0 0 0 0 0 0 0 0 0 0 0 0 0 0 0 127 0" result="hardAlpha"/>
<feOffset dy="3"/>
<feGaussianBlur stdDeviation="2.5"/>
<feComposite in2="hardAlpha" operator="out"/>
<feColorMatrix type="matrix" values="0 0 0 0 0 0 0 0 0 0 0 0 0 0 0 0 0 0 0.25 0"/>
<feBlend mode="normal" in2="BackgroundImageFix" result="effect1_dropShadow_6_43"/>
<feBlend mode="normal" in="SourceGraphic" in2="effect1_dropShadow_6_43" result="shape"/>
</filter>
</defs>
</svg>
