<svg width="125" height="125" viewBox="0 0 125 125" fill="none" xmlns="http://www.w3.org/2000/svg">
<path d="M62.5 0C27.9823 0 0 27.9823 0 62.5C0 97.0177 27.9823 125 62.5 125C97.0176 125 125 97.0176 125 62.5C125 27.9823 97.0176 0 62.5 0ZM62.5 111.413C35.4823 111.413 13.587 89.5108 13.587 62.5C13.587 35.4892 35.4823 13.587 62.5 13.587C89.5176 13.587 111.413 35.4892 111.413 62.5C111.413 89.5108 89.5176 111.413 62.5 111.413ZM74.7283 36.3451H50.2717V64.1304H34.9865L62.5 90.0135L90.0135 64.1304H74.7282L74.7283 36.3451Z" fill="#C32BAD"/>
</svg>
