<svg width="111" height="22" viewBox="0 0 111 22" fill="none" xmlns="http://www.w3.org/2000/svg">
<g filter="url(#filter0_d_1_109)">
<path d="M9.07525 3.406C9.07525 3.19 9.02125 3.028 8.91325 2.92C8.81725 2.8 8.62525 2.74 8.33725 2.74H7.04125V10.678H8.33725C8.82925 10.678 9.07525 10.402 9.07525 9.85V3.406ZM4.34125 0.526H8.71525C9.68725 0.526 10.4373 0.76 10.9653 1.228C11.5053 1.696 11.7753 2.386 11.7753 3.298V10.066C11.7753 12.022 10.8093 13 8.87725 13H4.34125V0.526ZM17.8802 3.712C17.8802 3.112 17.5202 2.812 16.8002 2.812C16.0922 2.812 15.7382 3.112 15.7382 3.712V9.814C15.7382 10.414 16.0922 10.714 16.8002 10.714C17.5202 10.714 17.8802 10.414 17.8802 9.814V3.712ZM13.0382 3.568C13.0382 2.584 13.3562 1.804 13.9922 1.228C14.6282 0.64 15.5642 0.346 16.8002 0.346C18.0362 0.346 18.9722 0.64 19.6082 1.228C20.2562 1.804 20.5802 2.584 20.5802 3.568V9.958C20.5802 10.942 20.2562 11.728 19.6082 12.316C18.9722 12.892 18.0362 13.18 16.8002 13.18C15.5642 13.18 14.6282 12.892 13.9922 12.316C13.3562 11.728 13.0382 10.942 13.0382 9.958V3.568ZM29.4768 0.526H31.7988L30.1428 13H27.7308L26.9928 8.068L26.5968 4.63C26.5008 5.962 26.3808 7.108 26.2368 8.068L25.4808 13H22.9068L21.3048 0.526H23.6628C24.1188 3.802 24.3708 5.716 24.4188 6.268C24.4668 6.82 24.5088 7.42 24.5448 8.068C24.7248 6.412 25.0248 3.898 25.4448 0.526H27.7308L28.5768 7.942C28.6368 6.742 28.7388 5.638 28.8828 4.63L29.4768 0.526ZM37.9868 0.526H40.6508V13H38.0588C36.2828 8.464 35.2568 5.728 34.9808 4.792C35.2328 5.74 35.3588 7.372 35.3588 9.688V13H32.6948V0.526H35.3588L36.9968 4.702C37.6928 6.49 38.1608 7.846 38.4008 8.77C38.1248 7.606 37.9868 5.902 37.9868 3.658V0.526ZM42.2748 0.526H45.0108V10.732H48.3408V13H42.2748V0.526ZM53.8978 3.712C53.8978 3.112 53.5378 2.812 52.8178 2.812C52.1098 2.812 51.7558 3.112 51.7558 3.712V9.814C51.7558 10.414 52.1098 10.714 52.8178 10.714C53.5378 10.714 53.8978 10.414 53.8978 9.814V3.712ZM49.0558 3.568C49.0558 2.584 49.3738 1.804 50.0098 1.228C50.6458 0.64 51.5818 0.346 52.8178 0.346C54.0538 0.346 54.9898 0.64 55.6258 1.228C56.2738 1.804 56.5978 2.584 56.5978 3.568V9.958C56.5978 10.942 56.2738 11.728 55.6258 12.316C54.9898 12.892 54.0538 13.18 52.8178 13.18C51.5818 13.18 50.6458 12.892 50.0098 12.316C49.3738 11.728 49.0558 10.942 49.0558 9.958V3.568ZM63.3704 13L62.8484 10.12H60.3824L59.8964 13H57.3224L59.7704 0.526H63.5324L65.9444 13H63.3704ZM60.7604 7.834H62.4524L61.5884 3.01L60.7604 7.834ZM71.5831 3.406C71.5831 3.19 71.5291 3.028 71.4211 2.92C71.3251 2.8 71.1331 2.74 70.8451 2.74H69.5491V10.678H70.8451C71.3371 10.678 71.5831 10.402 71.5831 9.85V3.406ZM66.8491 0.526H71.2231C72.1951 0.526 72.9451 0.76 73.4731 1.228C74.0131 1.696 74.2831 2.386 74.2831 3.298V10.066C74.2831 12.022 73.3171 13 71.3851 13H66.8491V0.526ZM86.5179 0.526H88.8399L87.1839 13H84.7719L84.0339 8.068L83.6379 4.63C83.5419 5.962 83.4219 7.108 83.2779 8.068L82.5219 13H79.9479L78.3459 0.526H80.7039C81.1599 3.802 81.4119 5.716 81.4599 6.268C81.5079 6.82 81.5499 7.42 81.5859 8.068C81.7659 6.412 82.0659 3.898 82.4859 0.526H84.7719L85.6179 7.942C85.6779 6.742 85.7799 5.638 85.9239 4.63L86.5179 0.526ZM95.0638 13L94.5418 10.12H92.0758L91.5898 13H89.0158L91.4638 0.526H95.2258L97.6378 13H95.0638ZM92.4538 7.834H94.1458L93.2818 3.01L92.4538 7.834ZM103.564 0.526H106.372L103.996 13H100.234L97.8224 0.526H100.576C101.272 4.498 101.674 6.898 101.782 7.726C101.89 8.554 102.01 9.532 102.142 10.66C102.37 8.512 102.568 6.904 102.736 5.836L103.564 0.526Z" fill="white"/>
</g>
<defs>
<filter id="filter0_d_1_109" x="0.341309" y="0.345947" width="110.031" height="20.834" filterUnits="userSpaceOnUse" color-interpolation-filters="sRGB">
<feFlood flood-opacity="0" result="BackgroundImageFix"/>
<feColorMatrix in="SourceAlpha" type="matrix" values="0 0 0 0 0 0 0 0 0 0 0 0 0 0 0 0 0 0 127 0" result="hardAlpha"/>
<feOffset dy="4"/>
<feGaussianBlur stdDeviation="2"/>
<feComposite in2="hardAlpha" operator="out"/>
<feColorMatrix type="matrix" values="0 0 0 0 0 0 0 0 0 0 0 0 0 0 0 0 0 0 0.25 0"/>
<feBlend mode="normal" in2="BackgroundImageFix" result="effect1_dropShadow_1_109"/>
<feBlend mode="normal" in="SourceGraphic" in2="effect1_dropShadow_1_109" result="shape"/>
</filter>
</defs>
</svg>
