<svg width="126" height="129" viewBox="0 0 126 129" fill="none" xmlns="http://www.w3.org/2000/svg">
<path d="M93.5 91.2857C92.759 91.285 92.0304 91.0914 91.3824 90.7232L52.1682 68.4018C51.4892 68.0151 50.9236 67.4494 50.5298 66.7634C50.1359 66.0773 49.9283 65.2959 49.9283 64.5C49.9283 63.7041 50.1359 62.9227 50.5298 62.2367C50.9236 61.5506 51.4892 60.985 52.1682 60.5982L91.3824 38.2768C92.0457 37.8989 92.7938 37.7051 93.5526 37.7144C94.3115 37.7238 95.0548 37.9361 95.7089 38.3303C96.3631 38.7246 96.9054 39.287 97.2822 39.9619C97.659 40.6369 97.8572 41.401 97.8571 42.1786V86.8214C97.8571 88.0054 97.3981 89.1409 96.581 89.9782C95.7639 90.8154 94.6556 91.2857 93.5 91.2857ZM63.2614 64.5L89.1429 79.2321V49.7679L63.2614 64.5ZM41.2143 91.2857H32.5V37.7143H41.2143V91.2857Z" fill="#C32BAD"/>
<path d="M63 127C50.9354 127 39.1416 123.334 29.1102 116.467C19.0788 109.599 11.2603 99.8381 6.64337 88.4177C2.02643 76.9973 0.818427 64.4307 3.17213 52.3069C5.52582 40.1831 11.3355 29.0466 19.8665 20.3058C28.3975 11.5651 39.2667 5.61252 51.0995 3.20095C62.9324 0.789372 75.1974 2.02708 86.3437 6.75756C97.49 11.488 107.017 19.4988 113.72 29.7769C120.422 40.0549 124 52.1387 124 64.5C123.982 81.0702 117.549 96.9564 106.113 108.673C94.6774 120.39 79.1726 126.981 63 127ZM63 10.9286C52.6589 10.9286 42.55 14.0705 33.9516 19.957C25.3533 25.8435 18.6517 34.2102 14.6943 43.9991C10.7369 53.788 9.70151 64.5594 11.719 74.9513C13.7364 85.3431 18.7162 94.8886 26.0284 102.381C33.3407 109.873 42.6572 114.975 52.7996 117.042C62.942 119.109 73.4549 118.048 83.0089 113.994C92.5628 109.939 100.729 103.072 106.474 94.2627C112.219 85.4529 115.286 75.0954 115.286 64.5C115.27 50.2971 109.756 36.6806 99.9538 26.6376C90.1518 16.5946 76.8621 10.9451 63 10.9286Z" fill="#C32BAD"/>
<path d="M93.5 91.2857C92.759 91.285 92.0304 91.0914 91.3824 90.7232L52.1682 68.4018C51.4892 68.0151 50.9236 67.4494 50.5298 66.7634C50.1359 66.0773 49.9283 65.2959 49.9283 64.5C49.9283 63.7041 50.1359 62.9227 50.5298 62.2367C50.9236 61.5506 51.4892 60.985 52.1682 60.5982L91.3824 38.2768C92.0457 37.8989 92.7938 37.7051 93.5526 37.7144C94.3115 37.7238 95.0548 37.9361 95.7089 38.3303C96.3631 38.7246 96.9054 39.287 97.2822 39.9619C97.659 40.6369 97.8572 41.401 97.8571 42.1786V86.8214C97.8571 88.0054 97.3981 89.1409 96.581 89.9782C95.7639 90.8154 94.6556 91.2857 93.5 91.2857ZM63.2614 64.5L89.1429 79.2321V49.7679L63.2614 64.5ZM41.2143 91.2857H32.5V37.7143H41.2143V91.2857Z" stroke="#C32BAD" stroke-width="4"/>
<path d="M63 127C50.9354 127 39.1416 123.334 29.1102 116.467C19.0788 109.599 11.2603 99.8381 6.64337 88.4177C2.02643 76.9973 0.818427 64.4307 3.17213 52.3069C5.52582 40.1831 11.3355 29.0466 19.8665 20.3058C28.3975 11.5651 39.2667 5.61252 51.0995 3.20095C62.9324 0.789372 75.1974 2.02708 86.3437 6.75756C97.49 11.488 107.017 19.4988 113.72 29.7769C120.422 40.0549 124 52.1387 124 64.5C123.982 81.0702 117.549 96.9564 106.113 108.673C94.6774 120.39 79.1726 126.981 63 127ZM63 10.9286C52.6589 10.9286 42.55 14.0705 33.9516 19.957C25.3533 25.8435 18.6517 34.2102 14.6943 43.9991C10.7369 53.788 9.70151 64.5594 11.719 74.9513C13.7364 85.3431 18.7162 94.8886 26.0284 102.381C33.3407 109.873 42.6572 114.975 52.7996 117.042C62.942 119.109 73.4549 118.048 83.0089 113.994C92.5628 109.939 100.729 103.072 106.474 94.2627C112.219 85.4529 115.286 75.0954 115.286 64.5C115.27 50.2971 109.756 36.6806 99.9538 26.6376C90.1518 16.5946 76.8621 10.9451 63 10.9286Z" stroke="#C32BAD" stroke-width="4"/>
<path d="M89.6282 46.2886L57.7798 64.1314L89.1517 83.4765L89.6282 46.2886Z" fill="#C32BAD"/>
</svg>
