<svg width="126" height="22" viewBox="0 0 126 22" fill="none" xmlns="http://www.w3.org/2000/svg">
<g filter="url(#filter0_d_1_105)">
<path d="M8.93109 3.622C8.93109 3.118 8.67309 2.866 8.15709 2.866H7.14909V7.06H8.15709C8.67309 7.06 8.93109 6.808 8.93109 6.304V3.622ZM4.43109 0.526H8.49909C9.47109 0.526 10.2331 0.76 10.7851 1.228C11.3491 1.696 11.6311 2.386 11.6311 3.298V6.628C11.6311 7.54 11.3491 8.23 10.7851 8.698C10.2331 9.166 9.47109 9.4 8.49909 9.4H7.14909V13H4.43109V0.526ZM12.8862 0.526H15.6222V10.732H18.9522V13H12.8862V0.526ZM25.1751 13L24.6531 10.12H22.1871L21.7011 13H19.1271L21.5751 0.526H25.3371L27.7491 13H25.1751ZM22.5651 7.834H24.2571L23.3931 3.01L22.5651 7.834ZM33.5498 13H30.8138V9.13L27.8438 0.526H30.6158L31.2098 2.416C31.6778 3.892 32.0138 5.2 32.2178 6.34C32.4458 5.176 32.7878 3.856 33.2438 2.38L33.8198 0.526H36.5198L33.5498 9.13V13ZM45.5732 13H42.8372V9.13L39.8672 0.526H42.6392L43.2332 2.416C43.7012 3.892 44.0372 5.2 44.2412 6.34C44.4692 5.176 44.8112 3.856 45.2672 2.38L45.8432 0.526H48.5432L45.5732 9.13V13ZM54.0228 3.712C54.0228 3.112 53.6628 2.812 52.9428 2.812C52.2348 2.812 51.8808 3.112 51.8808 3.712V9.814C51.8808 10.414 52.2348 10.714 52.9428 10.714C53.6628 10.714 54.0228 10.414 54.0228 9.814V3.712ZM49.1808 3.568C49.1808 2.584 49.4988 1.804 50.1348 1.228C50.7708 0.64 51.7068 0.346 52.9428 0.346C54.1788 0.346 55.1148 0.64 55.7508 1.228C56.3988 1.804 56.7228 2.584 56.7228 3.568V9.958C56.7228 10.942 56.3988 11.728 55.7508 12.316C55.1148 12.892 54.1788 13.18 52.9428 13.18C51.7068 13.18 50.7708 12.892 50.1348 12.316C49.4988 11.728 49.1808 10.942 49.1808 9.958V3.568ZM62.8474 0.526H65.5474V9.958C65.5474 10.942 65.2294 11.728 64.5934 12.316C63.9694 12.892 63.0394 13.18 61.8034 13.18C60.5794 13.18 59.6494 12.892 59.0134 12.316C58.3894 11.74 58.0774 10.954 58.0774 9.958V0.526H60.7774V9.814C60.7774 10.414 61.1194 10.714 61.8034 10.714C62.4994 10.714 62.8474 10.414 62.8474 9.814V0.526ZM69.7795 8.5V13H67.0795V0.526H71.1475C72.1315 0.526 72.8995 0.76 73.4515 1.228C74.0035 1.696 74.2795 2.38 74.2795 3.28V5.584C74.2795 7.024 73.7875 7.924 72.8035 8.284L74.7655 13H71.7955L70.1215 8.5H69.7795ZM69.7795 2.83V6.358H70.8415C71.1175 6.358 71.3095 6.298 71.4175 6.178C71.5255 6.058 71.5795 5.848 71.5795 5.548V3.514C71.5795 3.25 71.5195 3.07 71.3995 2.974C71.2795 2.878 71.0935 2.83 70.8415 2.83H69.7795ZM78.653 3.442C78.653 2.482 78.977 1.744 79.625 1.228C80.273 0.7 81.203 0.436 82.415 0.436C83.639 0.436 84.551 0.562 85.151 0.813999V3.406C84.419 3.094 83.585 2.938 82.649 2.938C82.169 2.938 81.845 3.016 81.677 3.172C81.509 3.316 81.425 3.526 81.425 3.802V4.072C81.425 4.408 81.479 4.66 81.587 4.828C81.707 4.984 81.959 5.164 82.343 5.368L84.395 6.52C85.379 7.06 85.871 7.87 85.871 8.95V10.066C85.871 11.038 85.511 11.788 84.791 12.316C84.071 12.832 83.057 13.09 81.749 13.09C80.453 13.09 79.475 12.952 78.815 12.676V10.066C79.631 10.414 80.555 10.588 81.587 10.588C82.619 10.588 83.135 10.294 83.135 9.706V9.436C83.135 9.16 83.075 8.956 82.955 8.824C82.847 8.68 82.637 8.524 82.325 8.356L80.399 7.312C79.235 6.664 78.653 5.752 78.653 4.576V3.442ZM91.6751 3.712C91.6751 3.112 91.3151 2.812 90.5951 2.812C89.8871 2.812 89.5331 3.112 89.5331 3.712V9.814C89.5331 10.414 89.8871 10.714 90.5951 10.714C91.3151 10.714 91.6751 10.414 91.6751 9.814V3.712ZM86.8331 3.568C86.8331 2.584 87.1511 1.804 87.7871 1.228C88.4231 0.64 89.3591 0.346 90.5951 0.346C91.8311 0.346 92.7671 0.64 93.4031 1.228C94.0511 1.804 94.3751 2.584 94.3751 3.568V9.958C94.3751 10.942 94.0511 11.728 93.4031 12.316C92.7671 12.892 91.8311 13.18 90.5951 13.18C89.3591 13.18 88.4231 12.892 87.7871 12.316C87.1511 11.728 86.8331 10.942 86.8331 9.958V3.568ZM100.5 0.526H103.2V9.958C103.2 10.942 102.882 11.728 102.246 12.316C101.622 12.892 100.692 13.18 99.4558 13.18C98.2318 13.18 97.3018 12.892 96.6658 12.316C96.0418 11.74 95.7298 10.954 95.7298 9.958V0.526H98.4298V9.814C98.4298 10.414 98.7718 10.714 99.4558 10.714C100.152 10.714 100.5 10.414 100.5 9.814V0.526ZM110.024 0.526H112.688V13H110.096C108.32 8.464 107.294 5.728 107.018 4.792C107.27 5.74 107.396 7.372 107.396 9.688V13H104.732V0.526H107.396L109.034 4.702C109.73 6.49 110.198 7.846 110.438 8.77C110.162 7.606 110.024 5.902 110.024 3.658V0.526ZM119.046 3.406C119.046 3.19 118.992 3.028 118.884 2.92C118.788 2.8 118.596 2.74 118.308 2.74H117.012V10.678H118.308C118.8 10.678 119.046 10.402 119.046 9.85V3.406ZM114.312 0.526H118.686C119.658 0.526 120.408 0.76 120.936 1.228C121.476 1.696 121.746 2.386 121.746 3.298V10.066C121.746 12.022 120.78 13 118.848 13H114.312V0.526Z" fill="white"/>
</g>
<defs>
<filter id="filter0_d_1_105" x="0.431152" y="0.345947" width="125.315" height="20.834" filterUnits="userSpaceOnUse" color-interpolation-filters="sRGB">
<feFlood flood-opacity="0" result="BackgroundImageFix"/>
<feColorMatrix in="SourceAlpha" type="matrix" values="0 0 0 0 0 0 0 0 0 0 0 0 0 0 0 0 0 0 127 0" result="hardAlpha"/>
<feOffset dy="4"/>
<feGaussianBlur stdDeviation="2"/>
<feComposite in2="hardAlpha" operator="out"/>
<feColorMatrix type="matrix" values="0 0 0 0 0 0 0 0 0 0 0 0 0 0 0 0 0 0 0.25 0"/>
<feBlend mode="normal" in2="BackgroundImageFix" result="effect1_dropShadow_1_105"/>
<feBlend mode="normal" in="SourceGraphic" in2="effect1_dropShadow_1_105" result="shape"/>
</filter>
</defs>
</svg>
