<svg width="133" height="133" viewBox="0 0 133 133" fill="none" xmlns="http://www.w3.org/2000/svg">
<g filter="url(#filter0_d_1_103)">
<path d="M66.5 0C31.9855 0 4 27.9855 4 62.5C4 97.0145 31.9855 125 66.5 125C101.015 125 129 97.0145 129 62.5C129 27.9855 101.015 0 66.5 0ZM66.5 114.397C37.8449 114.397 14.6027 91.1551 14.6027 62.5C14.6027 33.8449 37.8449 10.6027 66.5 10.6027C95.1551 10.6027 118.397 33.8449 118.397 62.5C118.397 91.1551 95.1551 114.397 66.5 114.397Z" fill="#C32BAD"/>
<path d="M95.4342 60.7003L54.1256 30.7059C53.7943 30.4631 53.402 30.317 52.9926 30.2839C52.5831 30.2509 52.1725 30.3322 51.8066 30.5188C51.4406 30.7054 51.1336 30.9899 50.9199 31.3407C50.7061 31.6915 50.594 32.0948 50.596 32.5056V92.4944C50.596 94.322 52.6607 95.3544 54.1256 94.2941L95.4342 64.2997C95.7194 64.0942 95.9516 63.8238 96.1118 63.5109C96.272 63.198 96.3556 62.8515 96.3556 62.5C96.3556 62.1485 96.272 61.802 96.1118 61.4891C95.9516 61.1762 95.7194 60.9058 95.4342 60.7003ZM59.4967 79.3945V45.6055L82.7528 62.5L59.4967 79.3945Z" fill="#C32BAD"/>
<path d="M87.5035 62.6178L57.3784 45.1742L57.5111 80.2886L87.5035 62.6178Z" fill="#C32BAD"/>
</g>
<defs>
<filter id="filter0_d_1_103" x="0" y="0" width="133" height="133" filterUnits="userSpaceOnUse" color-interpolation-filters="sRGB">
<feFlood flood-opacity="0" result="BackgroundImageFix"/>
<feColorMatrix in="SourceAlpha" type="matrix" values="0 0 0 0 0 0 0 0 0 0 0 0 0 0 0 0 0 0 127 0" result="hardAlpha"/>
<feOffset dy="4"/>
<feGaussianBlur stdDeviation="2"/>
<feComposite in2="hardAlpha" operator="out"/>
<feColorMatrix type="matrix" values="0 0 0 0 0 0 0 0 0 0 0 0 0 0 0 0 0 0 0.25 0"/>
<feBlend mode="normal" in2="BackgroundImageFix" result="effect1_dropShadow_1_103"/>
<feBlend mode="normal" in="SourceGraphic" in2="effect1_dropShadow_1_103" result="shape"/>
</filter>
</defs>
</svg>
