<svg width="327" height="45" viewBox="0 0 327 45" fill="none" xmlns="http://www.w3.org/2000/svg">
<g id="Frame 1">
<g id="Group 1">
<g id="Rectangle 1" filter="url(#filter0_d_1_118)">
<rect x="62" width="181" height="42" fill="#1DB9C3"/>
</g>
<path id="SUBMIT" d="M120.703 16.256C120.703 14.976 121.135 13.992 121.999 13.304C122.863 12.6 124.103 12.248 125.719 12.248C127.351 12.248 128.567 12.416 129.367 12.752V16.208C128.391 15.792 127.279 15.584 126.031 15.584C125.391 15.584 124.959 15.688 124.735 15.896C124.511 16.088 124.399 16.368 124.399 16.736V17.096C124.399 17.544 124.471 17.88 124.615 18.104C124.775 18.312 125.111 18.552 125.623 18.824L128.359 20.36C129.671 21.08 130.327 22.16 130.327 23.6V25.088C130.327 26.384 129.847 27.384 128.887 28.088C127.927 28.776 126.575 29.12 124.831 29.12C123.103 29.12 121.799 28.936 120.919 28.568V25.088C122.007 25.552 123.239 25.784 124.615 25.784C125.991 25.784 126.679 25.392 126.679 24.608V24.248C126.679 23.88 126.599 23.608 126.439 23.432C126.295 23.24 126.015 23.032 125.599 22.808L123.031 21.416C121.479 20.552 120.703 19.336 120.703 17.768V16.256ZM138.09 12.368H141.69V24.944C141.69 26.256 141.266 27.304 140.418 28.088C139.586 28.856 138.346 29.24 136.698 29.24C135.066 29.24 133.826 28.856 132.978 28.088C132.146 27.32 131.73 26.272 131.73 24.944V12.368H135.33V24.752C135.33 25.552 135.786 25.952 136.698 25.952C137.626 25.952 138.09 25.552 138.09 24.752V12.368ZM153.5 16.184V17.744C153.5 19.296 152.932 20.248 151.796 20.6C153.028 20.888 153.644 21.848 153.644 23.48V25.184C153.644 27.728 152.284 29 149.564 29H143.732V12.368H149.42C152.14 12.368 153.5 13.64 153.5 16.184ZM148.82 15.392H147.332V19.016H148.82C149.572 19.016 149.948 18.672 149.948 17.984V16.424C149.948 15.736 149.572 15.392 148.82 15.392ZM150.092 24.944V23.24C150.092 22.552 149.716 22.208 148.964 22.208H147.332V25.976H148.964C149.716 25.976 150.092 25.632 150.092 24.944ZM168.984 12.368V29H165.504V23.216C165.504 21.552 165.656 19.912 165.96 18.296L163.656 24.776H160.872L158.568 18.296C158.872 19.784 159.024 21.424 159.024 23.216V29H155.568V12.368H159.264L162.264 20.864L165.264 12.368H168.984ZM171.154 12.368H174.802V29H171.154V12.368ZM185.655 12.368V15.488H182.655V29H179.007V15.488H176.007V12.368H185.655Z" fill="#C32BAD"/>
</g>
</g>
<defs>
<filter id="filter0_d_1_118" x="58" y="0" width="189" height="50" filterUnits="userSpaceOnUse" color-interpolation-filters="sRGB">
<feFlood flood-opacity="0" result="BackgroundImageFix"/>
<feColorMatrix in="SourceAlpha" type="matrix" values="0 0 0 0 0 0 0 0 0 0 0 0 0 0 0 0 0 0 127 0" result="hardAlpha"/>
<feOffset dy="4"/>
<feGaussianBlur stdDeviation="2"/>
<feComposite in2="hardAlpha" operator="out"/>
<feColorMatrix type="matrix" values="0 0 0 0 0 0 0 0 0 0 0 0 0 0 0 0 0 0 0.25 0"/>
<feBlend mode="normal" in2="BackgroundImageFix" result="effect1_dropShadow_1_118"/>
<feBlend mode="normal" in="SourceGraphic" in2="effect1_dropShadow_1_118" result="shape"/>
</filter>
</defs>
</svg>
