<svg width="141" height="22" viewBox="0 0 141 22" fill="none" xmlns="http://www.w3.org/2000/svg">
<g filter="url(#filter0_d_1_110)">
<path d="M11.9422 0.526V2.866H9.69221V13H6.95621V2.866H4.70621V0.526H11.9422ZM15.5442 8.5V13H12.8442V0.526H16.9122C17.8962 0.526 18.6642 0.76 19.2162 1.228C19.7682 1.696 20.0442 2.38 20.0442 3.28V5.584C20.0442 7.024 19.5522 7.924 18.5682 8.284L20.5302 13H17.5602L15.8862 8.5H15.5442ZM15.5442 2.83V6.358H16.6062C16.8822 6.358 17.0742 6.298 17.1822 6.178C17.2902 6.058 17.3442 5.848 17.3442 5.548V3.514C17.3442 3.25 17.2842 3.07 17.1642 2.974C17.0442 2.878 16.8582 2.83 16.6062 2.83H15.5442ZM26.4238 13H23.6878V9.13L20.7178 0.526H23.4898L24.0838 2.416C24.5518 3.892 24.8878 5.2 25.0918 6.34C25.3198 5.176 25.6618 3.856 26.1178 2.38L26.6938 0.526H29.3938L26.4238 9.13V13ZM38.8792 13L38.3572 10.12H35.8912L35.4052 13H32.8312L35.2792 0.526H39.0412L41.4532 13H38.8792ZM36.2692 7.834H37.9612L37.0972 3.01L36.2692 7.834ZM47.6499 0.526H50.3139V13H47.7219C45.9459 8.464 44.9199 5.728 44.6439 4.792C44.8959 5.74 45.0219 7.372 45.0219 9.688V13H42.3579V0.526H45.0219L46.6599 4.702C47.3559 6.49 47.8239 7.846 48.0639 8.77C47.7879 7.606 47.6499 5.902 47.6499 3.658V0.526ZM56.5999 3.712C56.5999 3.112 56.2399 2.812 55.5199 2.812C54.8119 2.812 54.4579 3.112 54.4579 3.712V9.814C54.4579 10.414 54.8119 10.714 55.5199 10.714C56.2399 10.714 56.5999 10.414 56.5999 9.814V3.712ZM51.7579 3.568C51.7579 2.584 52.0759 1.804 52.7119 1.228C53.3479 0.64 54.2839 0.346 55.5199 0.346C56.7559 0.346 57.6919 0.64 58.3279 1.228C58.9759 1.804 59.2999 2.584 59.2999 3.568V9.958C59.2999 10.942 58.9759 11.728 58.3279 12.316C57.6919 12.892 56.7559 13.18 55.5199 13.18C54.2839 13.18 53.3479 12.892 52.7119 12.316C52.0759 11.728 51.7579 10.942 51.7579 9.958V3.568ZM67.2606 0.526V2.866H65.0106V13H62.2746V2.866H60.0246V0.526H67.2606ZM73.3825 0.526H76.1185V13H73.3825V8.068H70.8985V13H68.1625V0.526H70.8985V5.656H73.3825V0.526ZM77.7426 0.526H84.0606V2.866H80.4426V5.512H83.5746V7.852H80.4426V10.66H84.0606V13H77.7426V0.526ZM88.0188 8.5V13H85.3188V0.526H89.3868C90.3708 0.526 91.1388 0.76 91.6908 1.228C92.2428 1.696 92.5188 2.38 92.5188 3.28V5.584C92.5188 7.024 92.0268 7.924 91.0428 8.284L93.0048 13H90.0348L88.3608 8.5H88.0188ZM88.0188 2.83V6.358H89.0808C89.3568 6.358 89.5488 6.298 89.6568 6.178C89.7648 6.058 89.8188 5.848 89.8188 5.548V3.514C89.8188 3.25 89.7588 3.07 89.6388 2.974C89.5188 2.878 89.3328 2.83 89.0808 2.83H88.0188ZM97.3422 0.526H100.078V13H97.3422V0.526ZM111.764 0.526V13H109.154V8.662C109.154 7.414 109.268 6.184 109.496 4.972L107.768 9.832H105.68L103.952 4.972C104.18 6.088 104.294 7.318 104.294 8.662V13H101.702V0.526H104.474L106.724 6.898L108.974 0.526H111.764ZM118.719 13L118.197 10.12H115.731L115.245 13H112.671L115.119 0.526H118.881L121.293 13H118.719ZM116.109 7.834H117.801L116.937 3.01L116.109 7.834ZM122.018 3.532C122.018 2.584 122.378 1.834 123.098 1.282C123.83 0.718 124.868 0.436 126.212 0.436C127.22 0.436 128.066 0.55 128.75 0.778V3.334C128.03 3.058 127.31 2.92 126.59 2.92C125.87 2.92 125.384 3.004 125.132 3.172C124.88 3.34 124.754 3.568 124.754 3.856V9.778C124.754 10.066 124.844 10.288 125.024 10.444C125.204 10.588 125.468 10.66 125.816 10.66C126.176 10.66 126.452 10.612 126.644 10.516V6.304H129.272V12.334C128.336 12.838 127.226 13.09 125.942 13.09C124.658 13.09 123.68 12.826 123.008 12.298C122.348 11.77 122.018 11.026 122.018 10.066V3.532ZM130.618 0.526H136.936V2.866H133.318V5.512H136.45V7.852H133.318V10.66H136.936V13H130.618V0.526Z" fill="white"/>
</g>
<defs>
<filter id="filter0_d_1_110" x="0.706055" y="0.345947" width="140.229" height="20.834" filterUnits="userSpaceOnUse" color-interpolation-filters="sRGB">
<feFlood flood-opacity="0" result="BackgroundImageFix"/>
<feColorMatrix in="SourceAlpha" type="matrix" values="0 0 0 0 0 0 0 0 0 0 0 0 0 0 0 0 0 0 127 0" result="hardAlpha"/>
<feOffset dy="4"/>
<feGaussianBlur stdDeviation="2"/>
<feComposite in2="hardAlpha" operator="out"/>
<feColorMatrix type="matrix" values="0 0 0 0 0 0 0 0 0 0 0 0 0 0 0 0 0 0 0.25 0"/>
<feBlend mode="normal" in2="BackgroundImageFix" result="effect1_dropShadow_1_110"/>
<feBlend mode="normal" in="SourceGraphic" in2="effect1_dropShadow_1_110" result="shape"/>
</filter>
</defs>
</svg>
