<svg width="340" height="68" viewBox="0 0 340 68" fill="none" xmlns="http://www.w3.org/2000/svg">
<g filter="url(#filter0_d_1_112)">
<g filter="url(#filter1_d_1_112)">
<rect x="13" y="9" width="305" height="42" fill="#7027A0"/>
</g>
<path d="M55.625 16.4062H26.375C25.7527 16.4062 25.25 16.9788 25.25 17.6875V43.3125C25.25 44.0212 25.7527 44.5938 26.375 44.5938H55.625C56.2473 44.5938 56.75 44.0212 56.75 43.3125V17.6875C56.75 16.9788 56.2473 16.4062 55.625 16.4062ZM34.8828 22.1719C36.1238 22.1719 37.1328 23.321 37.1328 24.7344C37.1328 26.1478 36.1238 27.2969 34.8828 27.2969C33.6418 27.2969 32.6328 26.1478 32.6328 24.7344C32.6328 23.321 33.6418 22.1719 34.8828 22.1719ZM52.9496 39.6729C52.8984 39.7219 52.8337 39.7489 52.7668 39.749H29.2297C29.075 39.749 28.9484 39.6049 28.9484 39.4287C28.9484 39.3526 28.973 39.2806 29.0152 39.2205L35.0023 31.1326C35.1008 30.9965 35.2801 30.9805 35.3996 31.0926C35.4102 31.1046 35.4242 31.1166 35.4348 31.1326L38.9293 35.8572L44.4875 28.3499C44.5859 28.2138 44.7652 28.1978 44.8848 28.3099C44.8953 28.3219 44.9094 28.3339 44.9199 28.3499L52.9918 39.2245C53.0832 39.3566 53.0691 39.5608 52.9496 39.6729Z" fill="#C32BAD"/>
<path d="M115.496 21.368H119.096V33.944C119.096 35.256 118.672 36.304 117.824 37.088C116.992 37.856 115.752 38.24 114.104 38.24C112.472 38.24 111.232 37.856 110.384 37.088C109.552 36.32 109.136 35.272 109.136 33.944V21.368H112.736V33.752C112.736 34.552 113.192 34.952 114.104 34.952C115.032 34.952 115.496 34.552 115.496 33.752V21.368ZM127.139 25.496C127.139 24.824 126.795 24.488 126.107 24.488H124.763V30.08H126.107C126.795 30.08 127.139 29.744 127.139 29.072V25.496ZM121.139 21.368H126.563C127.859 21.368 128.875 21.68 129.611 22.304C130.363 22.928 130.739 23.848 130.739 25.064V29.504C130.739 30.72 130.363 31.64 129.611 32.264C128.875 32.888 127.859 33.2 126.563 33.2H124.763V38H121.139V21.368ZM132.412 21.368H136.06V34.976H140.5V38H132.412V21.368ZM147.909 25.616C147.909 24.816 147.429 24.416 146.469 24.416C145.525 24.416 145.053 24.816 145.053 25.616V33.752C145.053 34.552 145.525 34.952 146.469 34.952C147.429 34.952 147.909 34.552 147.909 33.752V25.616ZM141.453 25.424C141.453 24.112 141.877 23.072 142.725 22.304C143.573 21.52 144.821 21.128 146.469 21.128C148.117 21.128 149.365 21.52 150.213 22.304C151.077 23.072 151.509 24.112 151.509 25.424V33.944C151.509 35.256 151.077 36.304 150.213 37.088C149.365 37.856 148.117 38.24 146.469 38.24C144.821 38.24 143.573 37.856 142.725 37.088C141.877 36.304 141.453 35.256 141.453 33.944V25.424ZM160.539 38L159.843 34.16H156.555L155.907 38H152.475L155.739 21.368H160.755L163.971 38H160.539ZM157.059 31.112H159.315L158.163 24.68L157.059 31.112ZM171.49 25.208C171.49 24.92 171.418 24.704 171.274 24.56C171.146 24.4 170.89 24.32 170.506 24.32H168.778V34.904H170.506C171.162 34.904 171.49 34.536 171.49 33.8V25.208ZM165.178 21.368H171.01C172.306 21.368 173.306 21.68 174.01 22.304C174.73 22.928 175.09 23.848 175.09 25.064V34.088C175.09 36.696 173.802 38 171.226 38H165.178V21.368ZM188.571 38L187.875 34.16H184.587L183.939 38H180.507L183.771 21.368H188.787L192.003 38H188.571ZM185.091 31.112H187.347L186.195 24.68L185.091 31.112ZM200.265 21.368H203.817V38H200.361C197.993 31.952 196.625 28.304 196.257 27.056C196.593 28.32 196.761 30.496 196.761 33.584V38H193.209V21.368H196.761L198.945 26.936C199.873 29.32 200.497 31.128 200.817 32.36C200.449 30.808 200.265 28.536 200.265 25.544V21.368ZM210.435 21.368H214.083V38H210.435V21.368ZM229.664 21.368V38H226.184V32.216C226.184 30.552 226.336 28.912 226.64 27.296L224.336 33.776H221.552L219.248 27.296C219.552 28.784 219.704 30.424 219.704 32.216V38H216.248V21.368H219.944L222.944 29.864L225.944 21.368H229.664ZM238.938 38L238.242 34.16H234.954L234.306 38H230.874L234.138 21.368H239.154L242.37 38H238.938ZM235.458 31.112H237.714L236.562 24.68L235.458 31.112ZM243.336 25.376C243.336 24.112 243.816 23.112 244.776 22.376C245.752 21.624 247.136 21.248 248.928 21.248C250.272 21.248 251.4 21.4 252.312 21.704V25.112C251.352 24.744 250.392 24.56 249.432 24.56C248.472 24.56 247.824 24.672 247.488 24.896C247.152 25.12 246.984 25.424 246.984 25.808V33.704C246.984 34.088 247.104 34.384 247.344 34.592C247.584 34.784 247.936 34.88 248.4 34.88C248.88 34.88 249.248 34.816 249.504 34.688V29.072H253.008V37.112C251.76 37.784 250.28 38.12 248.568 38.12C246.856 38.12 245.552 37.768 244.656 37.064C243.776 36.36 243.336 35.368 243.336 34.088V25.376ZM254.803 21.368H263.227V24.488H258.403V28.016H262.579V31.136H258.403V34.88H263.227V38H254.803V21.368Z" fill="#1DB9C3"/>
</g>
<defs>
<filter id="filter0_d_1_112" x="4" y="3" width="345" height="63" filterUnits="userSpaceOnUse" color-interpolation-filters="sRGB">
<feFlood flood-opacity="0" result="BackgroundImageFix"/>
<feColorMatrix in="SourceAlpha" type="matrix" values="0 0 0 0 0 0 0 0 0 0 0 0 0 0 0 0 0 0 127 0" result="hardAlpha"/>
<feOffset dy="3"/>
<feGaussianBlur stdDeviation="4.5"/>
<feComposite in2="hardAlpha" operator="out"/>
<feColorMatrix type="matrix" values="0 0 0 0 0 0 0 0 0 0 0 0 0 0 0 0 0 0 0.15 0"/>
<feBlend mode="normal" in2="BackgroundImageFix" result="effect1_dropShadow_1_112"/>
<feBlend mode="normal" in="SourceGraphic" in2="effect1_dropShadow_1_112" result="shape"/>
</filter>
<filter id="filter1_d_1_112" x="0" y="0" width="331" height="68" filterUnits="userSpaceOnUse" color-interpolation-filters="sRGB">
<feFlood flood-opacity="0" result="BackgroundImageFix"/>
<feColorMatrix in="SourceAlpha" type="matrix" values="0 0 0 0 0 0 0 0 0 0 0 0 0 0 0 0 0 0 127 0" result="hardAlpha"/>
<feMorphology radius="3" operator="dilate" in="SourceAlpha" result="effect1_dropShadow_1_112"/>
<feOffset dy="4"/>
<feGaussianBlur stdDeviation="5"/>
<feComposite in2="hardAlpha" operator="out"/>
<feColorMatrix type="matrix" values="0 0 0 0 0 0 0 0 0 0 0 0 0 0 0 0 0 0 0.25 0"/>
<feBlend mode="normal" in2="BackgroundImageFix" result="effect1_dropShadow_1_112"/>
<feBlend mode="normal" in="SourceGraphic" in2="effect1_dropShadow_1_112" result="shape"/>
</filter>
</defs>
</svg>
